<?xml version="1.0" standalone="no"?>
<!DOCTYPE svg PUBLIC "-//W3C//DTD SVG 20010904//EN"
 "http://www.w3.org/TR/2001/REC-SVG-20010904/DTD/svg10.dtd">
<svg version="1.0" xmlns="http://www.w3.org/2000/svg"
 width="187.000000pt" height="187.000000pt" viewBox="0 0 187.000000 187.000000"
 preserveAspectRatio="xMidYMid meet">
<metadata>
Created by potrace 1.11, written by Peter Selinger 2001-2013
</metadata>
<g transform="translate(0.000000,187.000000) scale(0.100000,-0.100000)"
fill="#000000" stroke="none">
<path d="M670 1630 c-19 -10 -31 -19 -26 -20 5 0 4 -6 -1 -12 -20 -28 -15 -75
13 -108 26 -30 31 -32 76 -28 70 7 95 39 90 114 -5 60 -88 90 -152 54z"/>
<path d="M1063 1634 c-39 -19 -60 -76 -44 -117 30 -79 158 -77 183 4 15 50 -3
92 -47 113 -41 20 -52 20 -92 0z"/>
<path d="M908 1315 c-2 -1 -28 -6 -58 -9 -105 -12 -209 -78 -277 -177 -31 -44
-66 -119 -57 -119 3 0 0 -8 -5 -18 -22 -42 -31 -196 -16 -287 9 -52 11 -63 14
-67 2 -2 5 -14 7 -28 2 -13 9 -27 15 -31 6 -3 10 -9 10 -13 -2 -23 51 -100 99
-144 37 -34 111 -76 140 -80 13 -2 29 -7 35 -12 5 -4 55 -7 110 -5 103 3 129
6 141 18 4 4 16 7 26 7 39 0 186 124 188 158 0 6 4 12 9 12 14 0 60 136 67
198 9 81 11 126 6 136 -3 5 -6 33 -8 62 -1 29 -5 58 -9 64 -3 6 -8 22 -11 35
-4 24 -26 68 -62 123 -50 78 -173 157 -262 168 -25 3 -57 7 -72 9 -15 1 -28 2
-30 0z m131 -164 c64 -33 129 -123 147 -204 10 -43 11 -190 2 -240 -30 -162
-136 -260 -274 -252 -106 7 -172 52 -220 152 -30 62 -38 105 -38 203 0 108 16
194 41 218 7 7 13 20 13 28 0 8 5 14 11 14 5 0 7 5 4 10 -3 6 -3 10 2 10 4 0
23 14 42 32 62 58 186 72 270 29z"/>
</g>
</svg>
